<?xml version="1.0" encoding="UTF-8"?>
<svg id="Layer_1" data-name="Layer 1" xmlns="http://www.w3.org/2000/svg" viewBox="0 0 659.75 120.74"
  width="660" height="121">
  <defs>
    <style>
      .cls-1 {
      fill: #2e2e2c;
      stroke-width: 0px;
      }
    </style>
  </defs>
  <path class="cls-1"
    d="M95,0h86.4c.08,1.8.23,3.53.23,5.27.01,33.91-.07,67.83.12,101.74.02,4.17-1.23,5.67-5.25,6.52-9.57,2.03-19.01,4.63-29.24,7.18v-51.21h-17.68v42.36h-34.57V0ZM129.85,26.03v16.59h16.73v-16.59h-16.73Z" />
  <path class="cls-1"
    d="M338.25,69.31h-17.68v42.53h-34.57V.18h86.41c.07,1.63.22,3.36.22,5.09.01,33.91-.08,67.83.12,101.74.02,4.18-1.25,5.66-5.26,6.51-9.57,2.03-19.01,4.63-29.24,7.18v-51.39ZM337.44,42.68v-16.57h-16.65v16.57h16.65Z" />
  <path class="cls-1"
    d="M243.26,69.32h-17.69v42.53h-34.57V.17h86.29c.11,1.34.33,2.75.33,4.16.03,12.91-.14,25.82.12,38.72.07,3.61-1.26,4.82-4.52,5.55-8.34,1.88-16.6,4.08-24.77,7.32h29.19c0,2.7,0,4.8,0,6.9,0,15.06-.09,30.12.07,45.17.03,3.24-.96,4.57-4.23,5.29-9.88,2.19-19.66,4.79-30.22,7.42v-51.38ZM225.77,25.96v16.57h16.71v-16.57h-16.71Z" />
  <path class="cls-1"
    d="M564.28,111.9h-86.36V.29h86.36v111.6ZM529.62,86.02V26.16h-16.81v59.85h16.81Z" />
  <path class="cls-1"
    d="M625.12,26.06h-17.45v85.72h-34.77V.23h86.52c.08,1.75.22,3.36.22,4.97.01,33.93-.07,67.86.12,101.79.02,4.14-1.18,5.69-5.23,6.54-9.57,2.02-19.02,4.63-29.4,7.22V26.06Z" />
  <path class="cls-1"
    d="M468.45.16v34.35c-11.3,2.8-22.5,5.59-34.49,8.56v-17.01h-17.17v59.83h16.8c.17-2.57.35-5.13.56-8.35,11.18-2.78,22.51-5.6,34.23-8.52v42.88h-86.38V.16h86.45Z" />
  <path class="cls-1"
    d="M25.71,120.38V25.88H0V.16h86.25v25.41h-25.67c0,2.33,0,4.22,0,6.11,0,25.32-.07,50.64.08,75.96.02,3.43-.89,4.9-4.39,5.65-8.61,1.85-17.11,4.2-25.67,6.3-1.39.34-2.84.47-4.89.79Z" />
</svg>